<svg width="11" height="12" viewBox="0 0 11 12" fill="none" xmlns="http://www.w3.org/2000/svg">
<path fill-rule="evenodd" clip-rule="evenodd" d="M10.9166 5.99998C10.9166 8.99152 8.49146 11.4166 5.49992 11.4166C2.50838 11.4166 0.083252 8.99152 0.083252 5.99998C0.083252 3.00844 2.50838 0.583313 5.49992 0.583313C8.49146 0.583313 10.9166 3.00844 10.9166 5.99998ZM7.68301 4.35855C7.84166 4.5172 7.84166 4.77442 7.68301 4.93307L4.97468 7.64141C4.81603 7.80006 4.55881 7.80006 4.40016 7.64141L3.31682 6.55807C3.15817 6.39942 3.15817 6.1422 3.31682 5.98355C3.47547 5.8249 3.7327 5.8249 3.89135 5.98355L4.68742 6.77962L5.89795 5.56909L7.10849 4.35855C7.26714 4.1999 7.52436 4.1999 7.68301 4.35855Z" fill="#32B587"/>
</svg>
