<svg width="13" height="14" viewBox="0 0 13 14" fill="none" xmlns="http://www.w3.org/2000/svg">
<path fill-rule="evenodd" clip-rule="evenodd" d="M11.9166 6.99998C11.9166 9.99152 9.49146 12.4166 6.49992 12.4166C3.50838 12.4166 1.08325 9.99152 1.08325 6.99998C1.08325 4.00844 3.50838 1.58331 6.49992 1.58331C9.49146 1.58331 11.9166 4.00844 11.9166 6.99998ZM4.85847 5.35854C5.01712 5.19989 5.27434 5.19989 5.43299 5.35854L6.4999 6.42545L7.5668 5.35855C7.72545 5.1999 7.98267 5.1999 8.14133 5.35855C8.29998 5.5172 8.29998 5.77443 8.14133 5.93308L7.07443 6.99997L8.14131 8.06686C8.29996 8.22551 8.29996 8.48274 8.14131 8.64139C7.98266 8.80004 7.72544 8.80004 7.56679 8.64139L6.4999 7.5745L5.433 8.6414C5.27435 8.80005 5.01713 8.80005 4.85848 8.6414C4.69983 8.48275 4.69983 8.22552 4.85848 8.06687L5.92538 6.99997L4.85847 5.93306C4.69982 5.77441 4.69982 5.51719 4.85847 5.35854Z" fill="#F13C72"/>
</svg>
