<svg width="117" height="65" viewBox="0 0 117 65" fill="none" xmlns="http://www.w3.org/2000/svg">
<g filter="url(#filter0_ii_6_2027)">
<rect x="17.8906" y="13.6251" width="81.4159" height="50.935" fill="url(#paint0_linear_6_2027)"/>
</g>
<g filter="url(#filter1_iii_6_2027)">
<path d="M18.0465 13.6251H99.4624L110.805 34.9425C111.315 35.9 110.621 37.0552 109.536 37.0552H7.51011C6.41489 37.0552 5.72197 35.8794 6.25258 34.9213L18.0465 13.6251Z" fill="#F7F7F7"/>
</g>
<path d="M89.5762 6.23953H27.545L18.0465 13.6251H99.4624L89.5762 6.23953Z" fill="url(#paint1_linear_6_2027)"/>
<path d="M27.5447 6.23953L18.0461 13.6251H27.5442L27.5447 6.23953Z" fill="#D1D1D1"/>
<path d="M105.866 0.16972L115.247 5.52012C115.764 5.81489 115.719 6.57409 115.172 6.80624L99.0807 13.6251L89.54 6.2396L105.249 0.124274C105.451 0.0456611 105.678 0.0623587 105.866 0.16972Z" fill="url(#paint2_linear_6_2027)"/>
<mask id="mask0_6_2027" style="mask-type:alpha" maskUnits="userSpaceOnUse" x="89" y="0" width="27" height="14">
<path d="M105.866 0.16972L115.247 5.52012C115.764 5.81489 115.719 6.57409 115.172 6.80624L99.0807 13.6251L89.54 6.2396L105.249 0.124274C105.451 0.0456611 105.678 0.0623587 105.866 0.16972Z" fill="url(#paint3_linear_6_2027)"/>
</mask>
<g mask="url(#mask0_6_2027)">
<rect width="42.8461" height="27.1298" transform="matrix(0.92055 -0.390625 0.389974 0.920826 83.2985 19.6073)" fill="#D9D9D9"/>
</g>
<path d="M11.1339 0.16972L1.75686 5.51775C1.23928 5.81295 1.28501 6.57355 1.83423 6.80461L18.0465 13.6251L27.46 6.2396L11.7507 0.124274C11.5488 0.0456611 11.3221 0.0623587 11.1339 0.16972Z" fill="url(#paint4_linear_6_2027)"/>
<mask id="mask1_6_2027" style="mask-type:alpha" maskUnits="userSpaceOnUse" x="1" y="0" width="27" height="14">
<path d="M11.1339 0.16972L1.75686 5.51775C1.23928 5.81295 1.28501 6.57355 1.83423 6.80461L18.0465 13.6251L27.46 6.2396L11.7507 0.124274C11.5488 0.0456611 11.3221 0.0623587 11.1339 0.16972Z" fill="url(#paint5_linear_6_2027)"/>
</mask>
<g mask="url(#mask1_6_2027)">
<rect width="42.8462" height="27.1298" transform="matrix(0.920173 0.391513 -0.390861 0.92045 -7.47754 2.16473)" fill="#D9D9D9"/>
</g>
<path d="M89.5398 6.23953L99.4624 13.6251H89.5403L89.5398 6.23953Z" fill="#D1D1D1"/>
<defs>
<filter id="filter0_ii_6_2027" x="17.8906" y="13.6251" width="81.4159" height="52.3725" filterUnits="userSpaceOnUse" color-interpolation-filters="sRGB">
<feFlood flood-opacity="0" result="BackgroundImageFix"/>
<feBlend mode="normal" in="SourceGraphic" in2="BackgroundImageFix" result="shape"/>
<feColorMatrix in="SourceAlpha" type="matrix" values="0 0 0 0 0 0 0 0 0 0 0 0 0 0 0 0 0 0 127 0" result="hardAlpha"/>
<feMorphology radius="5.75" operator="dilate" in="SourceAlpha" result="effect1_innerShadow_6_2027"/>
<feOffset dy="37.375"/>
<feGaussianBlur stdDeviation="3.59375"/>
<feComposite in2="hardAlpha" operator="arithmetic" k2="-1" k3="1"/>
<feColorMatrix type="matrix" values="0 0 0 0 0.907568 0 0 0 0 0.907568 0 0 0 0 0.907568 0 0 0 1 0"/>
<feBlend mode="multiply" in2="shape" result="effect1_innerShadow_6_2027"/>
<feColorMatrix in="SourceAlpha" type="matrix" values="0 0 0 0 0 0 0 0 0 0 0 0 0 0 0 0 0 0 127 0" result="hardAlpha"/>
<feMorphology radius="2.875" operator="dilate" in="SourceAlpha" result="effect2_innerShadow_6_2027"/>
<feOffset dy="27.3125"/>
<feGaussianBlur stdDeviation="0.71875"/>
<feComposite in2="hardAlpha" operator="arithmetic" k2="-1" k3="1"/>
<feColorMatrix type="matrix" values="0 0 0 0 0.961361 0 0 0 0 0.961361 0 0 0 0 0.961361 0 0 0 1 0"/>
<feBlend mode="multiply" in2="effect1_innerShadow_6_2027" result="effect2_innerShadow_6_2027"/>
</filter>
<filter id="filter1_iii_6_2027" x="6.07056" y="13.6251" width="104.905" height="23.4301" filterUnits="userSpaceOnUse" color-interpolation-filters="sRGB">
<feFlood flood-opacity="0" result="BackgroundImageFix"/>
<feBlend mode="normal" in="SourceGraphic" in2="BackgroundImageFix" result="shape"/>
<feColorMatrix in="SourceAlpha" type="matrix" values="0 0 0 0 0 0 0 0 0 0 0 0 0 0 0 0 0 0 127 0" result="hardAlpha"/>
<feOffset dy="-1.4375"/>
<feComposite in2="hardAlpha" operator="arithmetic" k2="-1" k3="1"/>
<feColorMatrix type="matrix" values="0 0 0 0 0.824235 0 0 0 0 0.824235 0 0 0 0 0.824235 0 0 0 1 0"/>
<feBlend mode="normal" in2="shape" result="effect1_innerShadow_6_2027"/>
<feColorMatrix in="SourceAlpha" type="matrix" values="0 0 0 0 0 0 0 0 0 0 0 0 0 0 0 0 0 0 127 0" result="hardAlpha"/>
<feOffset dy="-0.539062"/>
<feComposite in2="hardAlpha" operator="arithmetic" k2="-1" k3="1"/>
<feColorMatrix type="matrix" values="0 0 0 0 1 0 0 0 0 1 0 0 0 0 1 0 0 0 0.13 0"/>
<feBlend mode="normal" in2="effect1_innerShadow_6_2027" result="effect2_innerShadow_6_2027"/>
<feColorMatrix in="SourceAlpha" type="matrix" values="0 0 0 0 0 0 0 0 0 0 0 0 0 0 0 0 0 0 127 0" result="hardAlpha"/>
<feOffset dy="0.71875"/>
<feComposite in2="hardAlpha" operator="arithmetic" k2="-1" k3="1"/>
<feColorMatrix type="matrix" values="0 0 0 0 1 0 0 0 0 1 0 0 0 0 1 0 0 0 0.25 0"/>
<feBlend mode="normal" in2="effect2_innerShadow_6_2027" result="effect3_innerShadow_6_2027"/>
</filter>
<linearGradient id="paint0_linear_6_2027" x1="58.5986" y1="13.6251" x2="58.7949" y2="64.282" gradientUnits="userSpaceOnUse">
<stop offset="0.681688" stop-color="#F3F3F3"/>
<stop offset="1" stop-color="#F3F3F3" stop-opacity="0"/>
</linearGradient>
<linearGradient id="paint1_linear_6_2027" x1="58.7544" y1="15.5352" x2="58.7544" y2="6.23953" gradientUnits="userSpaceOnUse">
<stop stop-color="#F8F8F8"/>
<stop offset="1" stop-color="#E7E7E7"/>
</linearGradient>
<linearGradient id="paint2_linear_6_2027" x1="104.36" y1="-4.94279" x2="104.36" y2="13.6252" gradientUnits="userSpaceOnUse">
<stop stop-color="#F0F0F0"/>
<stop offset="1" stop-color="#FDFDFD"/>
</linearGradient>
<linearGradient id="paint3_linear_6_2027" x1="104.36" y1="-4.94279" x2="104.36" y2="13.6252" gradientUnits="userSpaceOnUse">
<stop stop-color="#F0F0F0"/>
<stop offset="1" stop-color="#E4E4E4"/>
</linearGradient>
<linearGradient id="paint4_linear_6_2027" x1="12.6399" y1="-4.94279" x2="12.6399" y2="13.6252" gradientUnits="userSpaceOnUse">
<stop stop-color="#F0F0F0"/>
<stop offset="1" stop-color="#FDFDFD"/>
</linearGradient>
<linearGradient id="paint5_linear_6_2027" x1="12.6399" y1="-4.94279" x2="12.6399" y2="13.6252" gradientUnits="userSpaceOnUse">
<stop stop-color="#F0F0F0"/>
<stop offset="1" stop-color="#E4E4E4"/>
</linearGradient>
</defs>
</svg>
